# xmcd
#
# Track frame offsets:
#	151
#	9099
#	26326
#	38094
#	49143
#	61986
#	80070
#	95410
#	106161
#	119037
#	132586
#	148606
#	164846
#
# Disc length: 2395 seconds
# Revision: 0
# Processed by: cddbd v1.5.2PL0 Copyright (c) Steve Scherf et al.
# Submitted via: dBpowerAMP V12.0
#
DISCID=b009590d
DTITLE=Hartford, Rice and Clements - Hartford, Rice and Clements
DYEAR=2011
DGENRE=Bluegrass
TTITLE0=Bound To Ride
TTITLE1=If I Should Wander Back Tonight
TTITLE2=I Know You Don't Love Me No More
TTITLE3=My Baby's Gone
TTITLE4=The Wings of a Song
TTITLE5=Sweet Sunny South
TTITLE6=We Can't Be Darlings Anymore
TTITLE7=Long Journey Home
TTITLE8=Love Grown Cold
TTITLE9=Love Please Come Home
TTITLE10=Heavenly Sunlight
TTITLE11=Poor Ellen Smith
TTITLE12=Where Is Your Heart Tonight
EXTD=
EXTT0=
EXTT1=
EXTT2=
EXTT3=
EXTT4=
EXTT5=
EXTT6=
EXTT7=
EXTT8=
EXTT9=
EXTT10=
EXTT11=
EXTT12=
PLAYORDER=
